<?xml version="1.0" encoding="UTF-8"?>
<svg width="1024px" height="1024px" viewBox="0 0 1024 1024" version="1.1" xmlns="http://www.w3.org/2000/svg" xmlns:xlink="http://www.w3.org/1999/xlink">
    <title>logo</title>
    <g id="Page-1" stroke="none" stroke-width="1" fill="none" fill-rule="evenodd">
        <g id="logo">
            <path d="M512,0 C794.769792,-5.19439681e-14 1024,229.230208 1024,512 C1024,794.769792 794.769792,1024 512,1024 C229.230208,1024 3.46293121e-14,794.769792 0,512 C-3.46293121e-14,229.230208 229.230208,5.19439681e-14 512,0 Z" id="Rectangle" fill="#23282C"></path>
            <path d="M646,162 C673.883074,162 701.004609,165.260536 727.00413,171.421134 C572.753975,207.968335 458,346.583054 458,512 C458,677.416588 572.753479,816.031066 726.99587,852.578866 C701.003913,858.739547 673.882716,862 646,862 C452.700338,862 296,705.299662 296,512 C296,318.700338 452.700338,162 646,162 Z" id="Combined-Shape" fill="#DEDEDF"></path>
        </g>
    </g>
</svg>